/* XPM */
static char *example[] = {
/* columns rows colors chars-per-pixel */
"100 100 4 1",
"  c black",
". c yellow",
"X c blue",
"o c gray100",
/* pixels */
"                                                  XXXXXXXXXXXXXXXXXXXXXXXXXXXXXXXXXXXXXXXXXXXXXXXXXX",
"                                                  XXXXXXXXXXXXXXXXXXXXXXXXXXXXXXXXXXXXXXXXXXXXXXXXXX",
"                                                  XXXXXXXXXXXXXXXXXXXXXXXXXXXXXXXXXXXXXXXXXXXXXXXXXX",
"                                                  XXXXXXXXXXXXXXXXXXXXXXXXXXXXXXXXXXXXXXXXXXXXXXXXXX",
"                                                  XXXXXXXXXXXXXXXXXXXXXXXXXXXXXXXXXXXXXXXXXXXXXXXXXX",
"                                                  XXXXXXXXXXXXXXXXXXXXXXXXXXXXXXXXXXXXXXXXXXXXXXXXXX",
"                                                  XXXXXXXXXXXXXXXXXXXXXXXXXXXXXXXXXXXXXXXXXXXXXXXXXX",
"                                                  XXXXXXXXXXXXXXXXXXXXXXXXXXXXXXXXXXXXXXXXXXXXXXXXXX",
"                                                  XXXXXXXXXXXXXXXXXXXXXXXXXXXXXXXXXXXXXXXXXXXXXXXXXX",
"                                                  XXXXXXXXXXXXXXXXXXXXXXXXXXXXXXXXXXXXXXXXXXXXXXXXXX",
"                                                  XXXXXXXXXXXXXXXXXXXXXXXXXXXXXXXXXXXXXXXXXXXXXXXXXX",
"                                                  XXXXXXXXXXXXXXXXXXXXXXXXXXXXXXXXXXXXXXXXXXXXXXXXXX",
"                                                  XXXXXXXXXXXXXXXXXXXXXXXXXXXXXXXXXXXXXXXXXXXXXXXXXX",
"                                                  XXXXXXXXXXXXXXXXXXXXXXXXXXXXXXXXXXXXXXXXXXXXXXXXXX",
"                                                  XXXXXXXXXXXXXXXXXXXXXXXXXXXXXXXXXXXXXXXXXXXXXXXXXX",
"                                                  XXXXXXXXXXXXXXXXXXXXXXXXXXXXXXXXXXXXXXXXXXXXXXXXXX",
"                                                  XXXXXXXXXXXXXXXXXXXXXXXXXXXXXXXXXXXXXXXXXXXXXXXXXX",
"                                                  XXXXXXXXXXXXXXXXXXXXXXXXXXXXXXXXXXXXXXXXXXXXXXXXXX",
"                                                  XXXXXXXXXXXXXXXXXXXXXXXXXXXXXXXXXXXXXXXXXXXXXXXXXX",
"                                                  XXXXXXXXXXXXXXXXXXXXXXXXXXXXXXXXXXXXXXXXXXXXXXXXXX",
"                                                  XXXXXXXXXXXXXXXXXXXXXXXXXXXXXXXXXXXXXXXXXXXXXXXXXX",
"                                                  XXXXXXXXXXXXXXXXXXXXXXXXXXXXXXXXXXXXXXXXXXXXXXXXXX",
"                                                  XXXXXXXXXXXXXXXXXXXXXXXXXXXXXXXXXXXXXXXXXXXXXXXXXX",
"                                                  XXXXXXXXXXXXXXXXXXXXXXXXXXXXXXXXXXXXXXXXXXXXXXXXXX",
"                                                  XXXXXXXXXXXXXXXXXXXXXXXXXXXXXXXXXXXXXXXXXXXXXXXXXX",
"                                                  XXXXXXXXXXXXXXXXXXXXXXXXXXXXXXXXXXXXXXXXXXXXXXXXXX",
"                                                  XXXXXXXXXXXXXXXXXXXXXXXXXXXXXXXXXXXXXXXXXXXXXXXXXX",
"                                                  XXXXXXXXXXXXXXXXXXXXXXXXXXXXXXXXXXXXXXXXXXXXXXXXXX",
"                                                  XXXXXXXXXXXXXXXXXXXXXXXXXXXXXXXXXXXXXXXXXXXXXXXXXX",
"                                                  XXXXXXXXXXXXXXXXXXXXXXXXXXXXXXXXXXXXXXXXXXXXXXXXXX",
"                                                  XXXXXXXXXXXXXXXXXXXXXXXXXXXXXXXXXXXXXXXXXXXXXXXXXX",
"                                                  XXXXXXXXXXXXXXXXXXXXXXXXXXXXXXXXXXXXXXXXXXXXXXXXXX",
"                                                  XXXXXXXXXXXXXXXXXXXXXXXXXXXXXXXXXXXXXXXXXXXXXXXXXX",
"                                                  XXXXXXXXXXXXXXXXXXXXXXXXXXXXXXXXXXXXXXXXXXXXXXXXXX",
"                                                  XXXXXXXXXXXXXXXXXXXXXXXXXXXXXXXXXXXXXXXXXXXXXXXXXX",
"                                                  XXXXXXXXXXXXXXXXXXXXXXXXXXXXXXXXXXXXXXXXXXXXXXXXXX",
"                                                  XXXXXXXXXXXXXXXXXXXXXXXXXXXXXXXXXXXXXXXXXXXXXXXXXX",
"                                                  XXXXXXXXXXXXXXXXXXXXXXXXXXXXXXXXXXXXXXXXXXXXXXXXXX",
"                                                  XXXXXXXXXXXXXXXXXXXXXXXXXXXXXXXXXXXXXXXXXXXXXXXXXX",
"                                                  XXXXXXXXXXXXXXXXXXXXXXXXXXXXXXXXXXXXXXXXXXXXXXXXXX",
"                                                  XXXXXXXXXXXXXXXXXXXXXXXXXXXXXXXXXXXXXXXXXXXXXXXXXX",
"                                                  XXXXXXXXXXXXXXXXXXXXXXXXXXXXXXXXXXXXXXXXXXXXXXXXXX",
"                                                  XXXXXXXXXXXXXXXXXXXXXXXXXXXXXXXXXXXXXXXXXXXXXXXXXX",
"                                                  XXXXXXXXXXXXXXXXXXXXXXXXXXXXXXXXXXXXXXXXXXXXXXXXXX",
"                                                  XXXXXXXXXXXXXXXXXXXXXXXXXXXXXXXXXXXXXXXXXXXXXXXXXX",
"                                                  XXXXXXXXXXXXXXXXXXXXXXXXXXXXXXXXXXXXXXXXXXXXXXXXXX",
"                                                  XXXXXXXXXXXXXXXXXXXXXXXXXXXXXXXXXXXXXXXXXXXXXXXXXX",
"                                                  XXXXXXXXXXXXXXXXXXXXXXXXXXXXXXXXXXXXXXXXXXXXXXXXXX",
"                                                  XXXXXXXXXXXXXXXXXXXXXXXXXXXXXXXXXXXXXXXXXXXXXXXXXX",
"                                                  XXXXXXXXXXXXXXXXXXXXXXXXXXXXXXXXXXXXXXXXXXXXXXXXXX",
"..................................................oooooooooooooooooooooooooooooooooooooooooooooooooo",
"..................................................oooooooooooooooooooooooooooooooooooooooooooooooooo",
"..................................................oooooooooooooooooooooooooooooooooooooooooooooooooo",
"..................................................oooooooooooooooooooooooooooooooooooooooooooooooooo",
"..................................................oooooooooooooooooooooooooooooooooooooooooooooooooo",
"..................................................oooooooooooooooooooooooooooooooooooooooooooooooooo",
"..................................................oooooooooooooooooooooooooooooooooooooooooooooooooo",
"..................................................oooooooooooooooooooooooooooooooooooooooooooooooooo",
"..................................................oooooooooooooooooooooooooooooooooooooooooooooooooo",
"..................................................oooooooooooooooooooooooooooooooooooooooooooooooooo",
"..................................................oooooooooooooooooooooooooooooooooooooooooooooooooo",
"..................................................oooooooooooooooooooooooooooooooooooooooooooooooooo",
"..................................................oooooooooooooooooooooooooooooooooooooooooooooooooo",
"..................................................oooooooooooooooooooooooooooooooooooooooooooooooooo",
"..................................................oooooooooooooooooooooooooooooooooooooooooooooooooo",
"..................................................oooooooooooooooooooooooooooooooooooooooooooooooooo",
"..................................................oooooooooooooooooooooooooooooooooooooooooooooooooo",
"..................................................oooooooooooooooooooooooooooooooooooooooooooooooooo",
"..................................................oooooooooooooooooooooooooooooooooooooooooooooooooo",
"..................................................oooooooooooooooooooooooooooooooooooooooooooooooooo",
"..................................................oooooooooooooooooooooooooooooooooooooooooooooooooo",
"..................................................oooooooooooooooooooooooooooooooooooooooooooooooooo",
"..................................................oooooooooooooooooooooooooooooooooooooooooooooooooo",
"..................................................oooooooooooooooooooooooooooooooooooooooooooooooooo",
"..................................................oooooooooooooooooooooooooooooooooooooooooooooooooo",
"..................................................oooooooooooooooooooooooooooooooooooooooooooooooooo",
"..................................................oooooooooooooooooooooooooooooooooooooooooooooooooo",
"..................................................oooooooooooooooooooooooooooooooooooooooooooooooooo",
"..................................................oooooooooooooooooooooooooooooooooooooooooooooooooo",
"..................................................oooooooooooooooooooooooooooooooooooooooooooooooooo",
"..................................................oooooooooooooooooooooooooooooooooooooooooooooooooo",
"..................................................oooooooooooooooooooooooooooooooooooooooooooooooooo",
"..................................................oooooooooooooooooooooooooooooooooooooooooooooooooo",
"..................................................oooooooooooooooooooooooooooooooooooooooooooooooooo",
"..................................................oooooooooooooooooooooooooooooooooooooooooooooooooo",
"..................................................oooooooooooooooooooooooooooooooooooooooooooooooooo",
"..................................................oooooooooooooooooooooooooooooooooooooooooooooooooo",
"..................................................oooooooooooooooooooooooooooooooooooooooooooooooooo",
"..................................................oooooooooooooooooooooooooooooooooooooooooooooooooo",
"..................................................oooooooooooooooooooooooooooooooooooooooooooooooooo",
"..................................................oooooooooooooooooooooooooooooooooooooooooooooooooo",
"..................................................oooooooooooooooooooooooooooooooooooooooooooooooooo",
"..................................................oooooooooooooooooooooooooooooooooooooooooooooooooo",
"..................................................oooooooooooooooooooooooooooooooooooooooooooooooooo",
"..................................................oooooooooooooooooooooooooooooooooooooooooooooooooo",
"..................................................oooooooooooooooooooooooooooooooooooooooooooooooooo",
"..................................................oooooooooooooooooooooooooooooooooooooooooooooooooo",
"..................................................oooooooooooooooooooooooooooooooooooooooooooooooooo",
"..................................................oooooooooooooooooooooooooooooooooooooooooooooooooo",
"..................................................oooooooooooooooooooooooooooooooooooooooooooooooooo"
};
